<svg xmlns="http://www.w3.org/2000/svg" version="1.1" xmlns:xlink="http://www.w3.org/1999/xlink" xmlns:svgjs="http://svgjs.dev/svgjs" width="1000" height="1125" viewBox="0 0 1000 1125"><g transform="matrix(1,0,0,1,0.000006425112871966121,0)"><svg viewBox="0 0 320 360" data-background-color="#ffffff" preserveAspectRatio="xMidYMid meet" height="1125" width="1000" xmlns="http://www.w3.org/2000/svg" xmlns:xlink="http://www.w3.org/1999/xlink"><g id="tight-bounds" transform="matrix(1,0,0,1,0.0000020560361235766322,0)"><svg viewBox="0 0 320 360" height="360" width="320"><g><svg></svg></g><g><svg viewBox="0 0 320 360" height="360" width="320"><g><path transform="translate(-15.58119,4.24857) scale(3.51065,3.51065)" d="M51.5 85.2c-0.4-0.5-0.8-0.2-0.8-0.5-2.4 0.6-6.9-1-8.8-0.8 0.4-0.6-0.6-0.5-0.6-0.9-0.4 0.6-0.8 0-1.4 0.2-0.6-1.5-3-0.4-3.3-2.3-1.4 0-1.9-0.8-3.3-1.6 0.1-0.1 0.2-0.1 0.3-0.2-0.7-0.1-0.7-0.5-1.3-0.5l0.2-0.4c-1.1-0.2-1.5-1.9-3.1-2.5-0.5-0.1-1.6-1.8-2.2-2.2-0.3-0.2-0.8-0.2-0.1-0.3-0.1-0.1-0.1-0.3 0-0.4-0.7-0.2-0.8-0.8-1.7-1.1-0.1-0.3 0.2-0.5 0-0.7-0.2-0.1-0.5 0.1-0.7 0-0.1 1.8 1.9 2 2.5 3.5-0.2-0.2-0.5-0.8-0.7-0.4-0.1 0.3 0.8 1.4 0.8 0.8-0.3 0.2-0.4-0.3-0.2-0.4 0.3 0.5 0.9 0.4 0.9 0.8-0.3 0.3-0.7-0.3-0.6 0.2 0.9 0.5 0.8 1 1.3 1.7-0.4-0.5-0.5 0.4-0.9 0-0.1-1.5-1.8-1.2-1.8-2.7-0.2-0.5-0.4-0.1-0.7-0.3 0.4-0.4-1.2-1.8-1.2-1.3-0.5-0.6-0.2-0.8-0.3-1.2-0.4-0.1-0.1 0.4-0.4 0.1 0.4-0.7-0.5-1.6-1.1-2.3l0.4-0.2c-0.7-0.4-0.8-1.2-1.3-2.1-0.6 0.9 1.2 2.9 0.9 3.3 0 0.1 0.7 0.9 0.9 1.3 0.8 1.4 1.4 3.1 2.5 3.9-0.2-0.1-0.1-0.7 0.2-0.4 0 0.3-0.2 0.6-0.2 0.9 0.6 0.6 1.1 1.1 1.7 1.7-1.3-0.8-2.6-1.6-3.5-2.8 0.5-0.1 1 0.8 1.4 0.7-1-0.8-0.7-1.1-1.1-2.1-0.4-0.3 0.1 0.4-0.3 0.5-1.3-1.2-2.3-1.9-2.9-3 0.1-0.1 0.2-0.2 0.2-0.4-0.1-0.1-0.1-0.1-0.2-0.2 0.6 0.6 0.8 1.1 1.5 1.2-0.3-0.3 0-0.4-0.4-0.7-0.2-0.4-0.5 0.2-0.7-0.1 0.2-0.3 0-0.7 0-1-0.2 0-0.4 0-0.5-0.3-0.2-0.1-0.3 0-0.4 0.2-0.1-0.1-0.1-0.3-0.2-0.4v-0.1c-0.1-0.1-0.2-0.3-0.3-0.4-0.8-2.1-1.3-4.9-2.4-6.7 0.3-1.2-0.2-3.6-0.5-4.2 0.3-0.5 0.1-2.8-0.1-3.2-0.5 0.2 0.1 1.3-0.4 1.6-0.5-2.2 0.3-4.7 0.1-6.7 0.2 0 0.4 0 0.4-0.1-0.3-0.3 0.2-0.9 0.1-1.6 0.4-0.9-0.9 1.3-0.9 2.2-0.1 0.2-0.5 0-0.4 0.5 0 0.7 0.2 2.1-0.2 3.1-0.2 0-0.2-0.2-0.4-0.1-0.1 0.5-0.2 1.1-0.3 1.6-0.1-0.2-0.2-0.5-0.2-0.6-0.5-2.5 0-5.4-0.2-7.5 0.4 0 0.4-0.6 0.7-0.8-0.1 0.8-0.3 1.8 0.2 2 0.4-3.9 1.2-8.2 3-12.4 1.3-3.1 3.2-6.2 5.5-8.7 0.2 0.3-0.1 1 0 1.3 2-2.1 3.3-4.6 5.5-6 0.1 0.5-0.9 0.9-0.9 1.3 0.9-0.9 1.2-0.6 2.2-0.9 0.3-0.4-0.4 0-0.5-0.4 0.6-0.4 1-0.9 1.4-1.2 0 0.1-0.1 0.1-0.1 0.2 1.1-0.3 1.2-0.9 2-1.1-0.1-0.1-0.3-0.2-0.6-0.1 0.2-0.1 0.5-0.3 0.8-0.4-0.1 0-0.1 0.1-0.2 0.1 0.6-0.3 0.1 0.1 0.1 0.3 0.1 0 0.2-0.1 0.2-0.1-0.6 0.4-1 0.6-1.2 1.3 0.3-0.2 0.4 0 0.8-0.3 0.4-0.2-0.1-0.5 0.2-0.7 0.3 0.2 0.7 0.1 1 0.1 0-0.2 0.1-0.4 0.3-0.5 0.1-0.2 0-0.3-0.1-0.3 0.1-0.1 0.2-0.1 0.4-0.2 0 0 0.1 0 0.1 0.1 1.7-0.8 3.6-1.5 5.4-2.1 1.1-0.1 2.5-0.1 3.1-0.8-0.2 0-0.4 0.1-0.5 0 0.1 0 0.3-0.1 0.4-0.1 0.2 0.2 0.5 0 0.2 0.4 0.1 0 0.1 0 0.2-0.1 0 0.1 0 0.1 0.1 0.2 0.1 0 0.2-0.1 0.3-0.3 0.1 0 0.2 0 0.3-0.1l-0.1 0.1c0.8-0.2 1.5-0.1 2.6-0.3 0-0.1 0-0.2 0-0.3 0.2 0 0.3-0.1 0.5-0.1v0.1c0.4-0.2 0.8 0.2 0.8 0 0.1 0 0.1 0 0.2 0 0 0.2-0.1 0.3-0.1 0.4 0.5 0 0.8 0 1-0.3-0.1-0.1-0.2-0.1-0.3-0.1 0.2 0 0.4-0.1 0.6-0.2 0.3 0.1 0.4 0.2 0.4 0.6 0.5-0.9 2.1 0.2 2.8 0 0.3 0 0.2-0.4 0.4-0.6 0.1 0 0.2 0 0.3 0 0.5 0.4 1.2 0.8 2.1 0.9-0.8-0.2 0.1-0.3 0.2-0.4-0.2 0-0.2-0.1-0.2-0.2 0.3 0 0.6 0.1 0.9 0.1 0 0.2 0.1 0.3 0.3 0.3 0.2 0 0.2-0.1 0.2-0.3 0.3 0 0.5 0 0.8 0.1-0.1 0.4 0.5 0.5 0.7 0.8-0.8-0.2-1.7-0.5-2 0 3.2 0.7 6.7 1.7 10.1 3.4 0 0 0 0 0 0.1h0.1c0.6 0.3 1.2 0.6 1.8 0.9 0.4 0.2 0.7 0.4 1.1 0.7 0 0.1 0 0.2 0.2 0.2h0.1c0.4 0.3 0.8 0.5 1.2 0.8 0.4 0.6 0.8 1.4 1.5 1.2 1.5 2.3 3.1 3.2 4.4 5.6 0.1-0.4 0.4 0.9 0.9 1-0.8-0.1 0.5 0.5-0.3 0.4 0.7 0.7 0.9 1 1 1.8-0.2-0.4-0.3-0.5-0.4-0.1-0.1 0.6 0.7-0.1 1 0.5-0.6 0-0.4 0.4-0.3 0.9 0.3-0.3 0.2-0.6 0.5-0.5 0.4 0.4-0.2 0.5-0.1 0.8 0.3-0.4 0.4-0.2 0.8 0-0.5 0.1 0.3 0.8-0.3 0.5 0.4 0.5 0.5 0.8 0.3 1.3-0.4-0.6-0.1-1-0.7-0.9 1.2 1 0.6 3.3 2 3.5-0.9 0.2 0 0.6-0.5 0.7 0.6 0.2 0.3 1 1 1.2-0.1 0.5-0.3 0.8-0.4 1.3 0.3 0.4 0.4 1.2 0.9 1.3-0.3 0.3-0.1 1.1-0.4 1.4 0.4-0.2 0.6-0.2 0.9 0.2-0.5 0.4-0.1 0.8-0.4 0.9 0.9 2.3-0.2 7 0.3 8.8-0.6-0.3-0.4 0.7-0.8 0.7 0.7 0.3 0.1 0.8 0.4 1.3-1.4 0.8 0 3-1.9 3.5 0.2 1.4-0.6 2-1.2 3.5-0.1-0.1-0.1-0.2-0.2-0.3-0.1 0.7-0.5 0.8-0.3 1.4l-0.4-0.2c0 1.1-1.7 1.7-2.1 3.4-0.1 0.5-1.6 1.8-2 2.5-0.2 0.3-0.1 0.8-0.3 0.1-0.1 0.1-0.3 0.1-0.4 0.1-0.1 0.7-0.7 0.9-0.9 1.8-0.2 0.1-0.5-0.2-0.7 0.1 0 0.2 0.2 0.5 0.1 0.7 1.8-0.1 1.8-2.2 3.2-2.9-0.1 0.3-0.7 0.6-0.3 0.8 0.3 0 1.2-1 0.7-0.9 0.3 0.2-0.3 0.4-0.4 0.3 0.5-0.4 0.3-0.9 0.7-1 0.3 0.2-0.3 0.7 0.3 0.6 0.4-0.9 0.9-1 1.5-1.5-0.4 0.4 0.5 0.5 0.1 0.9-1.5 0.3-1 2-2.5 2.2-0.4 0.3-0.1 0.4-0.2 0.7-0.5-0.3-1.6 1.4-1.2 1.3-0.5 0.5-0.8 0.3-1.2 0.4-0.1 0.4 0.4 0.1 0.2 0.4-0.7-0.3-1.6 0.7-2.2 1.4l-0.3-0.3c-0.3 0.8-1.1 0.9-2 1.5 1 0.5 2.7-1.6 3.2-1.3 0.1 0 0.9-0.8 1.2-1.1 1.3-1 2.9-1.8 3.5-2.9-0.1 0.2-0.7 0.2-0.4-0.1 0.3-0.1 0.6 0.1 0.9 0.1 1.6-2.2 3.6-4 5.1-6.6 0.1-0.1 0.2-0.3 0.3-0.5-0.2 0.6-0.5 1.1-0.7 1.7-1.6 1.1-2.2 4.3-4.1 4.8 0.1 1.1-0.9 1.4-1.4 2.7-0.3 0.4-0.5-0.3-0.8 0.2 0.3 1.4-2.5 1.3-2.4 2.6-0.2 0.1-0.5 0.2-0.7 0.4h-0.1c-0.1 0.1-0.1 0.1-0.2 0.2-0.5 0.3-0.9 0.6-1.3 0.9-1.4 0.8-3.3 1.4-4.8 2.2v-0.1c-0.4 0.2-0.9 0.1-0.8 0.5-0.3 0.2-0.6 0.4-0.9 0.6-0.1 0-0.1 0-0.2 0 0 0-0.1-0.1-0.2-0.1-0.2 0-0.2 0-0.3 0.1-1.3 0.1-3 0.7-3.5 1.1-0.5-0.3-2.8 0.2-3.2 0.4 0.2 0.3 0.8 0 1.3 0-0.3 0.1-0.6 0.2-0.7 0.4-0.1 0-0.1 0-0.2 0-0.1-0.3-0.4 0-0.5-0.1h0.1c-0.1-0.4-0.4-0.6-0.9-0.5 0 0.2 0 0.3-0.1 0.5 0.2 0 0.8-0.3 0.8 0-0.1 0-0.1 0.1 0 0.1-0.2 0.2-0.5 0.2-0.7 0.3-0.4 0-0.9 0-1.3 0-0.1-0.1-0.2-0.1-0.4-0.2-0.1 0.1-0.3 0.1-0.4 0.2-0.6 0-1.3 0.1-1.8 0.2 0-0.2 0-0.4-0.2-0.4-0.3 0.4-0.9-0.1-1.6 0.1-0.7-0.2 0.4 0.3 1.4 0.5-0.1 0.1-0.2 0.2-0.5 0.3M37.5 86.6c-1.4-1.3-4.3-1.9-4.8-2.9-0.8-0.1-2-1.6-3-1.8 0.5 0 0.1-0.3 0-0.5-0.2 0.2-0.4 0.3-0.6 0.3 0-0.8-0.8-1.3-1.5-1.8 0.5 0.3 0.9 0.5 1.5 0.6 0-0.2 0-0.4 0.2-0.4 0.7 0.7 1.5 1.4 2.4 2.1 1.2 1.1 7.4 3.9 8.5 4.4 0 0-0.2 0.4-0.1 0.4 0.5 0.3 0.9-0.3 1 0.4-1.6 0.2-2.2-0.9-3.6-0.8M83.6 63.4v0.1 0c-0.1 0 0-0.1 0-0.1M43.2 17.1c-0.1 0.1-0.2 0.1-0.2 0.1 0-0.1 0.1-0.1 0.2-0.1M41.3 17.6c0 0.1 0 0.1 0 0 0 0.1 0 0.1 0 0 0 0.1 0 0 0 0M34.7 19.7v0c0.1-0.1 0.1-0.1 0.2-0.1-0.1 0-0.2 0.1-0.2 0.1M50.7 16.4c-0.2 0-0.3 0-0.4-0.1 0.1 0 0.2 0 0.3 0h0.1c0 0 0 0 0 0.1M52.5 16.6c-0.1-0.1-0.4-0.2-0.7-0.2 0-0.1 0.1-0.2 0.1-0.2 0.1 0 0.2 0 0.3 0 0 0 0.1 0 0.1 0.1 0 0 0 0 0-0.1 0.1 0 0.1 0 0.2 0 0.1 0.2 0.2 0.3 0 0.4M55.8 16.9c-0.5 0.1-0.8-0.1-1.3-0.4 0.3 0 0.7 0.1 1 0.2 0.1 0 0.2 0.1 0.3 0.2M91.4 31.1c-0.2 0.1-0.3 0.1-0.5-0.3-1.6-3.4-4.5-8.3-8.7-12.4-4.1-4.2-9.6-7.6-14.6-9.4 0.3 0.1 0.7 0.3 0.5 0.5-4.4-1.7-8.6-2.7-12.6-3.1-10.8-1.7-22.1 0.6-30.8 6.2 0.1 0.2 0.1 0.3-0.2 0.5-3.2 2-7.7 5.5-11.3 10.1-3.6 4.6-6.4 10.4-7.6 15.6 0.1-0.3 0.2-0.8 0.4-0.6-2.6 10.3-1.9 19.1 1.7 26.7 0.2-0.2-0.5-1.2 0.1-1.1 0.4 1.1 0.9 2.3 1.5 3.4 0.7 1.6 1.5 3.7 2.6 4.2-2.8-5.5-4.7-11.8-4.9-17.4 0.4 0.8 0.3 2.5 0.9 3.2 0.2-3.8-0.7-8.9 0.6-12.5-0.3 1.9-0.5 4.5-0.3 7.1 0 1.9 0.9 7.2 1.5 7.7-0.1-0.1-0.1-0.6 0-0.6 0.3 0.6-0.4 0.9 0.1 1 0-0.2 0.1-0.2 0.2-0.2 1 2.2 2.3 5.6 3.3 7.3 1.2 2.2 2.8 4.2 4.6 6 0 0.1 0.1 0.1 0.1 0.2 0.2 0.5 0.9 1.1 1.1 1.5 0.1 0.2-0.1 0.5 0 0.7 1.5 2.8 3.7 5.6 6.4 7.8 1.7 2 4.4 4.1 7.7 5.9 3.2 1.7 6.9 3.1 10.3 3.9 2.4 0.6 5.3 0.7 7.1 1.1 2.4 0.5 6.6-0.2 8.7-0.6 12.6-1.9 25.1-10.5 31.4-22.9 6.5-12.5 6.3-27.8 0.7-39.5" fill="#50a060" fill-rule="nonzero" stroke="none" stroke-width="1" stroke-linecap="butt" stroke-linejoin="miter" stroke-miterlimit="10" stroke-dasharray="" stroke-dashoffset="0" font-family="none" font-weight="none" font-size="none" text-anchor="none" style="mix-blend-mode: normal" data-fill-palette-color="tertiary"></path></g><g transform="matrix(1,0,0,1,80,150.5145883896321)"><svg viewBox="0 0 160 58.97082322073576" height="58.97082322073576" width="160"><g><svg viewBox="0 0 160 58.97082322073576" height="58.97082322073576" width="160"><g transform="matrix(1,0,0,1,0,35.9448866158621)"><svg viewBox="0 0 160 23.025936604873657" height="23.025936604873657" width="160"><g id="textblocktransform"><svg viewBox="0 0 160 23.025936604873657" height="23.025936604873657" width="160" id="textblock"><g><svg viewBox="0 0 160 23.025936604873657" height="23.025936604873657" width="160"><g transform="matrix(1,0,0,1,0,0)"><svg width="160" viewBox="-0.8917399999999956 -17.83638311951276 289.166263323718 41.61453311951276" height="23.025936604873657" data-palette-color="#50a060"><path d="M16.469 13.815l0.868-3.69-3.482-1.879 0.977-6.265 3.705 0.578 0.25 2.033c0.297 2.421 0.817 4.432 1.559 6.032 0.735 1.606 1.758 2.878 3.069 3.818 1.312 0.933 2.979 1.557 5.001 1.873v0c0.79 0.123 1.557 0.182 2.3 0.176 0.743-0.006 1.339-0.081 1.787-0.227v0l1.242-3.035-0.85-0.78c-1.152-1.05-2.192-2.147-3.12-3.29-0.936-1.138-1.785-2.485-2.548-4.041v0l-1.914-4.023 0.005-0.029c1.758-0.414 3.27-1.218 4.535-2.41 1.265-1.193 2.055-2.793 2.368-4.803v0c0.318-2.042 0.033-3.763-0.854-5.163-0.883-1.393-2.333-2.523-4.35-3.391-2.01-0.867-4.63-1.552-7.857-2.055v0c-5.658-0.882-10.601-1.224-14.829-1.026v0l-0.897 3.807 4.457 1.859-2.929 18.783-4.88 1.182-0.974 3.259zM17.105-12.602c0.174 0.007 0.439 0.038 0.795 0.093v0c1.14 0.178 2.11 0.572 2.913 1.183 0.802 0.611 1.378 1.352 1.728 2.223 0.35 0.871 0.454 1.764 0.311 2.68v0c-0.19 1.219-0.483 2.209-0.878 2.97-0.402 0.76-0.928 1.387-1.578 1.879v0l-4.891-0.762zM38.406-9.988l4.417 2.225-2.247 19.712-4.147 0.977-0.674 3.798 28.873 3.29 1.861-9.883-3.958-0.863-4.222 5.608-8.738-1.489 0.939-8.237 2.678 0.788 6.479 1.967 1.567-6.595-6.218-0.196-0.781-0.038-3.249-0.099 0.994-8.723 8.356 0.952 1.41 5.555 4.07 1.108 1.881-10.052-28.436-3.24zM83.255 22.179c1.848 0.141 3.638 0.033 5.37-0.323 1.733-0.363 3.253-0.882 4.561-1.558 1.301-0.67 2.287-1.404 2.956-2.202v0l-1.185-3.4c-1.187 0.745-2.429 1.299-3.727 1.662-1.298 0.369-2.769 0.491-4.411 0.366v0c-1.815-0.138-3.395-0.72-4.741-1.745-1.353-1.026-2.369-2.434-3.048-4.223-0.679-1.79-0.93-3.858-0.751-6.205v0c0.242-3.177 0.943-5.618 2.102-7.322 1.159-1.697 2.709-2.471 4.65-2.324v0c0.977 0.074 1.913 0.346 2.806 0.816 0.894 0.469 1.599 1.041 2.116 1.715v0l1.126 5.763 4.095 0.873 1.543-10.252c-0.79-0.782-2.078-1.469-3.865-2.06-1.794-0.591-3.485-0.947-5.073-1.068v0c-4.068-0.31-7.504 0.211-10.309 1.562-2.804 1.351-4.931 3.245-6.38 5.682-1.449 2.43-2.287 5.148-2.516 8.152v0c-0.36 4.733 0.674 8.496 3.102 11.288 2.428 2.799 6.287 4.4 11.579 4.803zM99.046-4.147l4.503 2.008-0.891 19.479-4.383 1.732-0.398 3.445 17.472 0.799 0.497-3.881-4.315-1.739 0.885-19.35 4.431-1.439 0.568-3.878-17.712-0.81zM137.325 23.678l0.65-3.99-6.095-1.772 0.299-19.858c0.648-0.11 1.193-0.162 1.632-0.155v0c1.546 0.023 2.718 0.628 3.513 1.813 0.796 1.185 1.18 2.671 1.153 4.457v0c-0.022 1.466-0.493 2.633-1.412 3.5-0.913 0.86-2.249 1.276-4.009 1.25v0l-0.51-0.008 0.716 4.261c0.765 0.091 1.425 0.141 1.978 0.15v0c2.373 0.036 4.487-0.406 6.34-1.325 1.847-0.912 3.293-2.171 4.337-3.775 1.038-1.605 1.571-3.38 1.601-5.327v0c0.054-3.613-1.054-6.197-3.324-7.751-2.27-1.554-5.568-2.364-9.895-2.429v0c-2.793-0.042-5.244 0.028-7.354 0.21-2.11 0.175-4.664 0.483-7.665 0.925v0l-0.378 3.875 4.623 1.149-0.289 19.298-4.589 1.852-0.59 3.361zM148.721-3.046l4.678 1.603 0.455 19.835-3.976 1.532-0.152 3.854 29.053-0.667 0.499-10.044-4.038-0.317-3.42 6.13-8.859-0.287-0.19-8.288 2.76 0.417 6.686 1.067 0.656-6.747-6.187 0.652-0.779 0.068-3.233 0.344-0.201-8.777 8.408-0.193 2.152 5.312 4.184 0.544 0.495-10.214-28.612 0.657zM179.905-3.665l4.649 1.497 1.292 19.557-3.994 2.188-0.068 3.382 16.724-1.105 0.201-3.631-3.774-1.294-0.453-6.865 10.148-0.671 0.444 6.726-3.206 2.136-0.117 3.385 16.873-1.115 0.101-3.624-4.462-1.249-1.312-19.867 3.984-1.896 0.217-3.683-16.993 1.123-0.167 3.679 3.79 1.553 0.444 6.726-10.147 0.67-0.456-6.895 3.225-1.847 0.218-3.682-16.793 1.109zM223.153-5l1.5 13.246c0.404 3.571 1.416 6.163 3.034 7.778 1.625 1.614 3.426 2.557 5.403 2.829 1.982 0.265 4.209 0.258 6.68-0.021v0c4.346-0.492 7.514-2.018 9.505-4.579 1.999-2.554 2.749-6.236 2.252-11.044v0l-1.197-11.458 3.811-2.072 0.005-3.684-14.179 1.606-0.075 3.692 4.465 1.306 1.464 12.927c0.272 2.405-0.032 4.251-0.912 5.538-0.887 1.288-2.229 2.034-4.024 2.237v0c-2.001 0.227-3.645-0.198-4.935-1.273-1.282-1.069-2.068-2.889-2.359-5.459v0l-1.445-12.758 3.821-2.074 0.115-3.696-17.449 1.976-0.293 3.717zM274.005 13.587c5.045-0.789 8.788-2.185 11.228-4.185 2.432-2.007 3.406-4.561 2.92-7.664v0c-0.201-1.284-0.727-2.403-1.577-3.356-0.844-0.954-1.84-1.666-2.986-2.135-1.14-0.469-2.231-0.65-3.273-0.54v0l-0.037-0.237c0.817-0.472 1.55-1.093 2.199-1.863 0.642-0.769 1.122-1.603 1.44-2.502 0.326-0.894 0.423-1.76 0.292-2.597v0c-0.372-2.378-1.609-4.053-3.711-5.026-2.109-0.972-5.097-1.156-8.963-0.552v0c-7.41 1.159-12.714 2.367-15.912 3.623v0l0.363 3.871 4.238 0.43 2.983 19.068-3.705 2.523 0.185 3.382zM268.943-12.17c0.422-0.147 0.93-0.267 1.523-0.36v0c1.554-0.243 2.748-0.032 3.581 0.635 0.827 0.674 1.336 1.62 1.527 2.838v0c0.146 0.935 0.142 1.901-0.013 2.896-0.161 0.997-0.415 1.792-0.76 2.387v0l-4.436 0.694zM270.897 0.318l2.074-0.324c1.139-0.178 2.147-0.144 3.023 0.104 0.883 0.253 1.583 0.673 2.1 1.26 0.516 0.581 0.838 1.283 0.967 2.106v0c0.239 1.528 0.077 2.734-0.487 3.619-0.57 0.885-1.524 1.433-2.86 1.642v0l-3.419 0.534z" opacity="1" transform="matrix(1,0,0,1,0,0)" fill="#50a060" class="undefined-text-0" data-fill-palette-color="primary" id="text-0"></path></svg></g></svg></g></svg></g></svg></g><g transform="matrix(1,0,0,1,55.9289158634119,0)"><svg viewBox="0 0 48.1421682731762 34.53890490731048" height="34.53890490731048" width="48.1421682731762"><g><svg xmlns="http://www.w3.org/2000/svg" xmlns:xlink="http://www.w3.org/1999/xlink" version="1.1" x="0" y="0" viewBox="81.3 209.5 834.5 598.7" style="enable-background:new 0 0 1000 1000;" xml:space="preserve" height="34.53890490731048" width="48.1421682731762" class="icon-icon-0" data-fill-palette-color="accent" id="icon-0"><g fill="#50a060" data-fill-palette-color="accent"><g fill="#50a060" data-fill-palette-color="accent"><g fill="#50a060" data-fill-palette-color="accent"><g fill="#50a060" data-fill-palette-color="accent"><path d="M246.8 699.1L246.8 699.1c0-2-0.1-4.9 0-8.6 0.1-7.4 0.6-18.1 2.1-30.9 0.7-6.4 1.7-13.3 2.9-20.6 1.3-7.3 2.8-14.9 4.8-22.8 1.9-7.8 4.2-15.9 6.9-23.9 2.7-8 5.8-16.1 9.4-24 3.6-7.9 7.5-15.5 11.9-22.9 4.3-7.3 9.1-14.2 14.1-20.6 5-6.4 10.3-12.3 15.6-17.6 5.3-5.3 10.8-9.9 16-13.9 5.2-4 10.3-7.3 14.8-10.2 2.3-1.3 4.5-2.7 6.5-3.8 2.1-1.1 3.9-2.2 5.7-3 1.7-0.9 3.3-1.6 4.7-2.3 1.4-0.6 2.5-1.1 3.5-1.6 1.7-0.7 2.7-1.2 2.9-1.3-0.2 0.1-1.3 0.4-3 1-1 0.3-2.2 0.7-3.7 1.2-1.4 0.5-3.1 1.1-4.9 1.8-1.8 0.7-3.8 1.5-6 2.4-2.2 0.9-4.5 2-7 3.1-4.9 2.4-10.4 5.2-16.2 8.8-5.8 3.5-11.8 7.7-17.9 12.6-6.1 4.8-12.2 10.4-18.2 16.5-5.9 6.1-11.7 12.9-17.1 20.1-5.4 7.2-10.4 14.9-15.1 22.8-4.6 7.9-8.8 16.1-12.6 24.3-3.8 8.2-7.1 16.5-10 24.5-2.9 8.1-5.4 16-7.6 23.6-2.2 7.6-3.9 14.8-5.4 21.6-3 13.5-4.7 24.9-5.7 33-0.5 4-0.8 7.3-1 9.5 0 0.4-0.1 0.8-0.1 1.2h-58.3c0-166.5 152.1-301.4 339.8-301.4s339.8 134.9 339.8 301.4H246.8z" fill="#50a060" data-fill-palette-color="accent"></path></g></g><g fill="#50a060" data-fill-palette-color="accent"><g fill="#50a060" data-fill-palette-color="accent"><path d="M892.5 764.2H104.6c-12.9 0-23.3-10.4-23.3-23.3 0-12.9 10.4-23.3 23.3-23.3h787.9c12.9 0 23.3 10.4 23.3 23.3C915.8 753.8 905.4 764.2 892.5 764.2z" fill="#50a060" data-fill-palette-color="accent"></path></g></g><g fill="#50a060" data-fill-palette-color="accent"><g fill="#50a060" data-fill-palette-color="accent"><circle cx="496.3" cy="357.3" r="33" fill="#50a060" data-fill-palette-color="accent"></circle></g></g></g><g fill="#50a060" data-fill-palette-color="accent"><path d="M888.4 808.2h-459c-8.3 0-15-6.7-15-15s6.7-15 15-15h459c8.3 0 15 6.7 15 15S896.7 808.2 888.4 808.2z" fill="#50a060" data-fill-palette-color="accent"></path></g><path d="M664.9 277.6c7 19.4 5.2 36-3 47.2-7.4 11.3-21.2 17.2-20.5 17.3-0.8-0.1 5.1-6.9 4.7-19.1 0.3-12.1-5.8-29.6-12.8-49-7-19.4-5.2-36 3-47.2 7.4-11.3 21.2-17.2 20.5-17.3 0.8 0.1-5.1 6.9-4.7 19.1C651.8 240.7 657.9 258.2 664.9 277.6z" fill="#50a060" data-fill-palette-color="accent"></path><path d="M670.3 343.8c-7.1 19.3-5.4 35.9 2.7 47.2 7.4 11.3 21.2 17.3 20.4 17.4 0.8-0.1-5.1-7-4.6-19.2-0.2-12.1 5.9-29.6 13.1-49 7.1-19.3 5.4-35.9-2.7-47.2-7.4-11.3-21.2-17.3-20.4-17.4-0.8 0.1 5.1 7 4.6 19.2C683.6 306.9 677.4 324.4 670.3 343.8z" fill="#50a060" data-fill-palette-color="accent"></path><path d="M143.2 541.2c8.7 17.4 8.8 33.2 2.3 44.7-5.8 11.4-18.1 18.5-17.4 18.5-0.7 0 4.1-7.1 2.3-18.5-1-11.4-8.7-27.2-17.4-44.7s-8.8-33.2-2.3-44.7c5.8-11.4 18.1-18.5 17.4-18.5 0.7 0-4.1 7.1-2.3 18.5C126.9 508 134.5 523.8 143.2 541.2z" fill="#50a060" data-fill-palette-color="accent"></path></g></svg></g></svg></g><g></g></svg></g></svg></g></svg></g><defs></defs></svg><rect width="320" height="360" fill="none" stroke="none" visibility="hidden"></rect></g></svg></g></svg>